<?xml version="1.0" standalone="no"?>
<!DOCTYPE svg PUBLIC "-//W3C//DTD SVG 20010904//EN"
 "http://www.w3.org/TR/2001/REC-SVG-20010904/DTD/svg10.dtd">
<svg version="1.0" xmlns="http://www.w3.org/2000/svg"
 width="4426.000000pt" height="1301.000000pt" viewBox="0 0 4426.000000 1301.000000"
 preserveAspectRatio="xMidYMid meet">

<g transform="translate(0.000000,1301.000000) scale(0.100000,-0.100000)"
fill="#000000" stroke="none">
<path d="M2645 12990 c-547 -26 -916 -76 -1155 -156 -208 -70 -482 -223 -685
-384 -112 -89 -287 -268 -371 -380 -225 -300 -361 -639 -405 -1013 -16 -136
-7 -491 16 -634 10 -62 21 -113 25 -113 9 0 98 189 150 320 181 450 373 708
677 912 283 190 620 303 1053 352 326 37 431 40 1575 41 723 1 1202 6 1330 13
321 19 1082 26 1300 13 537 -33 894 -112 1185 -262 390 -201 604 -517 671
-989 13 -90 18 -444 7 -455 -9 -9 -85 37 -312 188 -309 204 -518 293 -801 341
-295 50 -790 78 -1605 91 -443 8 -2182 -11 -2455 -26 -1019 -55 -1691 -375
-2114 -1009 -419 -625 -624 -1553 -703 -3170 -22 -448 -11 -4185 13 -4619 34
-601 185 -927 643 -1387 480 -481 863 -615 1851 -649 l180 -7 -105 68 c-72 47
-152 86 -255 126 -323 127 -519 250 -696 435 -245 256 -394 611 -453 1078 -36
282 -41 421 -40 1140 2 983 2 2583 0 3425 -1 730 4 883 45 1280 74 731 230
1265 481 1646 86 131 256 306 371 383 77 52 230 131 253 131 18 0 27 -1723 23
-4480 -4 -2534 -5 -2501 42 -2880 85 -686 299 -1165 661 -1478 529 -457 1346
-746 2383 -844 216 -20 903 -17 1125 5 524 53 945 140 1395 291 847 284 1533
743 2016 1348 476 597 769 1266 866 1978 25 188 25 659 0 840 -94 673 -346
1268 -781 1845 l-90 119 60 116 c33 63 135 234 226 380 91 146 192 315 226
375 202 365 321 765 363 1225 16 174 16 561 0 715 -66 639 -292 1267 -616
1710 -84 115 -188 234 -261 299 l-51 45 8 -44 c12 -64 34 -150 84 -321 91
-314 141 -548 166 -774 16 -148 16 -472 0 -620 -68 -630 -320 -1273 -765
-1950 -123 -186 -200 -284 -384 -484 -77 -83 -161 -176 -186 -206 -284 -332
-262 -579 85 -958 180 -197 259 -293 351 -432 217 -326 361 -710 414 -1110 22
-168 22 -481 0 -655 -68 -520 -275 -1006 -607 -1427 -105 -133 -364 -392 -499
-498 -302 -240 -694 -451 -1080 -582 -663 -225 -1657 -283 -2430 -142 -686
125 -1172 390 -1386 753 -40 69 -110 239 -101 248 2 2 287 -2 633 -8 805 -14
1845 -7 2114 15 586 48 866 110 1152 258 539 277 920 756 1040 1308 19 91 23
134 23 325 0 191 -3 235 -23 334 -67 332 -218 641 -449 918 -45 54 -202 217
-348 363 -290 287 -350 353 -413 446 -182 268 -162 548 63 883 107 160 189
255 455 526 141 143 278 287 306 320 411 490 831 1341 978 1985 64 282 80 414
80 695 1 281 -11 383 -69 612 -143 557 -522 1074 -1045 1425 -354 237 -753
370 -1270 422 -272 27 -386 30 -1265 31 -484 0 -1292 3 -1795 7 -503 4 -996 3
-1095 -2z m3285 -3164 c688 -61 1091 -181 1291 -387 102 -104 170 -296 170
-479 0 -128 -17 -195 -76 -316 -67 -138 -161 -251 -470 -564 -154 -157 -314
-328 -357 -380 -331 -411 -465 -818 -436 -1326 21 -368 174 -759 430 -1102 96
-127 205 -240 388 -402 308 -272 430 -427 501 -635 21 -60 24 -88 24 -200 -1
-114 -4 -140 -28 -210 -37 -113 -119 -245 -194 -316 -217 -203 -629 -314
-1333 -360 -249 -16 -988 -13 -1440 5 -212 9 -502 21 -644 26 -142 5 -261 12
-263 14 -3 2 -7 1487 -10 3299 l-6 3295 54 6 c51 5 518 28 954 46 314 13 1238
4 1445 -14z"/>
<path d="M25540 6085 l0 -3015 630 0 630 0 0 3015 0 3015 -630 0 -630 0 0
-3015z"/>
<path d="M13820 5910 l0 -2841 1673 4 c1827 3 1750 1 2082 62 727 135 1205
476 1378 985 57 168 71 267 71 500 0 236 -14 331 -74 512 -129 387 -439 693
-860 850 -30 12 -66 25 -79 30 -22 8 -17 13 64 63 121 76 197 139 301 248 228
239 352 534 370 884 33 612 -298 1095 -916 1342 -206 82 -409 134 -680 173
-154 22 -164 22 -1742 25 l-1588 4 0 -2841z m2903 1845 c361 -47 600 -198 676
-426 63 -192 40 -425 -59 -579 -74 -115 -223 -215 -395 -265 -202 -58 -204
-58 -1047 -62 l-778 -4 0 675 0 676 744 0 c605 0 767 -3 859 -15z m217 -2300
c469 -55 719 -245 771 -585 13 -88 6 -225 -17 -313 -73 -287 -319 -448 -756
-496 -61 -7 -415 -11 -958 -11 l-860 0 0 710 0 710 848 0 c680 0 872 -3 972
-15z"/>
<path d="M34510 7494 c-847 -78 -1533 -527 -1876 -1229 -108 -222 -175 -448
-210 -715 -22 -169 -14 -546 14 -700 69 -366 191 -652 395 -926 356 -478 900
-779 1597 -885 139 -22 188 -24 475 -24 281 1 338 4 464 23 387 61 708 180
974 361 113 77 277 218 320 275 l28 36 -58 64 c-32 35 -182 196 -333 359
l-275 295 -40 -37 c-196 -179 -433 -298 -710 -354 -149 -30 -529 -32 -670 -4
-281 57 -497 168 -664 343 -86 89 -127 147 -183 259 -34 68 -88 221 -88 251 0
12 217 14 1654 14 l1654 0 6 28 c18 93 28 291 23 425 -17 439 -141 849 -354
1177 -83 127 -137 194 -248 309 -335 346 -765 557 -1297 637 -99 15 -499 27
-598 18z m439 -959 c390 -64 689 -315 817 -687 20 -58 54 -193 54 -214 0 -2
-487 -4 -1081 -4 l-1081 0 7 48 c10 74 72 249 116 332 155 289 433 479 774
529 98 14 293 12 394 -4z"/>
<path d="M39655 7494 c-16 -2 -73 -9 -125 -15 -320 -36 -681 -159 -950 -323
-484 -295 -826 -756 -964 -1298 -61 -236 -71 -325 -71 -603 0 -279 11 -373 70
-600 241 -929 1034 -1539 2125 -1636 191 -17 586 -7 755 20 437 67 770 198
1060 416 86 65 265 234 265 250 0 11 -644 708 -658 713 -5 1 -41 -24 -80 -57
-201 -168 -437 -281 -687 -327 -136 -25 -441 -30 -588 -10 -295 42 -525 147
-708 326 -102 100 -169 194 -225 314 -28 61 -74 203 -74 228 0 4 746 9 1657
10 l1658 3 13 120 c18 166 10 471 -18 634 -55 331 -169 634 -327 876 -255 388
-641 683 -1092 834 -262 88 -467 121 -776 126 -126 2 -243 1 -260 -1z m401
-955 c346 -48 635 -253 784 -554 47 -95 93 -232 106 -317 l7 -38 -1082 0
c-916 0 -1081 2 -1081 14 0 8 11 56 24 107 83 320 278 562 557 693 83 40 224
82 314 95 87 12 282 13 371 0z"/>
<path d="M19930 6151 c0 -782 4 -1339 10 -1417 58 -731 355 -1243 879 -1512
301 -155 620 -220 1030 -209 234 6 365 27 558 92 268 89 464 208 661 399 l92
90 0 -262 0 -262 600 0 600 0 0 2185 0 2185 -635 0 -634 0 -4 -1212 c-3 -1191
-4 -1215 -24 -1308 -49 -217 -115 -369 -218 -497 -189 -235 -453 -342 -810
-330 -180 6 -269 26 -405 93 -78 39 -109 62 -175 128 -121 123 -185 247 -231
446 -40 181 -44 302 -44 1521 l0 1159 -625 0 -625 0 0 -1289z"/>
<path d="M27352 7427 c2 -8 413 -991 913 -2185 l910 -2171 650 0 650 -1 915
2171 c503 1194 916 2177 918 2185 3 12 -90 14 -595 14 l-598 -1 -630 -1489
c-346 -819 -632 -1490 -635 -1490 -3 0 -277 671 -610 1490 l-605 1490 -643 0
c-534 0 -643 -2 -640 -13z"/>
<path d="M43295 4553 c-351 -75 -588 -345 -612 -699 -31 -468 319 -844 787
-844 412 0 734 288 779 698 22 201 -28 395 -143 556 -104 146 -281 255 -473
292 -95 18 -247 17 -338 -3z"/>
</g>
</svg>
